<svg width="142" height="144" viewBox="0 0 142 144" fill="none" xmlns="http://www.w3.org/2000/svg">
<path d="M43.4 0H96.5L123.7 24L97.7 48.2H43.4L16 24.1L43.4 0Z" fill="#C3FCF6"/>
<path d="M16.2 24.3V66.4001L42.5999 48.9001L69.9 81.9001L97.5999 49L123.8 67L123.6 24C123.6 23.9 123.6 23.8 123.6 23.8L97.5999 48H43.4L16.2 24.3Z" fill="#5CE1E6"/>
<path d="M16.2 66.4001L0 55.6L16.2 24.3V66.4001Z" fill="#0BAFA7"/>
<path d="M123.7 24.1L141.3 56L123.8 67.1L123.7 24.1Z" fill="#0BAFA7"/>
<path d="M16 66.4L69.9 81.9L42.4 48.9L16 66.4Z" fill="#0BAFA7"/>
<path d="M123.8 67.1L69.9 81.9L97.4 48.9L123.8 67.1Z" fill="#C3FCF6"/>
<path d="M0 55.6L70.3 143.4L16.2 66.4L0 55.6Z" fill="#C3FCF6"/>
<path d="M141.3 56L70.3 143.4L123.8 67.1L141.3 56Z" fill="#C3FCF6"/>
<path d="M69.9 81.9L70.3 143L16.2 66.4L69.9 81.9Z" fill="#5CE1E6"/>
<path d="M69.9 81.9L70.3 143L123.8 67.1L69.9 81.9Z" fill="#0BAFA7"/>
</svg>
