<svg width="148" height="146" viewBox="0 0 148 146" fill="none" xmlns="http://www.w3.org/2000/svg">
<path d="M38.5 84.3V75.2L60 41.7C60 41.7 93.1 4.59998 113.5 3.09998C113.5 3.09998 129.1 23 143.7 32.1C143.7 32.1 123.4 75.4 105.4 85.6L71.3 106.8L64.7 108.3L38.5 84.3Z" fill="#5CE1E6"/>
<path d="M113.4 3.2C113.4 3.2 130.1 24.2 143.6 32.2C143.6 32.2 151.1 10.4 144.8 3.2C138.5 -4 113.4 3.2 113.4 3.2Z" fill="#0BAFA7"/>
<path d="M41.6 75.3C41.6 75.3 59.5 53.6 60.6 43.6H45.7C45.7 43.6 20.1 46.6 0 83C0 83 15.4 74.5 22.3 73.1C22.3 73.1 32.5 70.4 41.6 75.3Z" fill="#0BAFA7"/>
<path d="M71.8 104.5C71.8 104.5 93.8 86.9 103.7 85.9L103.5 100.8C103.5 100.8 100.1 126.4 63.5 146C63.5 146 72.2 130.7 73.7 123.8C73.7 123.8 76.6 113.6 71.8 104.5Z" fill="#0BAFA7"/>
<path d="M107.2 59.2C118.135 59.2 127 50.3352 127 39.4C127 28.4647 118.135 19.6 107.2 19.6C96.2648 19.6 87.4 28.4647 87.4 39.4C87.4 50.3352 96.2648 59.2 107.2 59.2Z" fill="#C3FCF6"/>
<path d="M107.2 51.9999C114.159 51.9999 119.8 46.3587 119.8 39.3999C119.8 32.4411 114.159 26.7999 107.2 26.7999C100.241 26.7999 94.6 32.4411 94.6 39.3999C94.6 46.3587 100.241 51.9999 107.2 51.9999Z" fill="#005950"/>
<path d="M38.5 83C36.7 82.8 19.4 87.6 16 99C12.6 110.4 14.1 129.3 10.5 135.6C10.5 135.6 21.8 130.4 34.7 131.4C34.7 131.4 47.7 133.3 56.1 122L64.7 108.3L38.5 84.3V83Z" fill="#0BAFA7"/>
<path d="M44 89.4C43.1 89.3 35.3 91.3 33.7 96.8C32.1 102.3 32.8 111.4 31 114.4C31 114.4 36.4 111.9 42.7 112.4C42.7 112.4 49 113.3 53 107.9L57.1 101.3L44.4 89.8L44 89.4Z" fill="#C3FCF6"/>
</svg>
