<svg width="156" height="112" viewBox="0 0 156 112" fill="none" xmlns="http://www.w3.org/2000/svg">
<g clip-path="url(#clip0_188_905)">
<path d="M60.9 76.4L64.2 31.2C64.2 31.2 63.6 24.7 51.7 19.3C39.8 13.9 31.6 20.7 31.6 20.7C31.6 20.7 26.8 24.4 26.3 25.5C25.8 26.5 8.90002 59.4 8.90002 59.4C8.90002 59.4 15.7 52.3 24.3 51.3C32.9 50.3 34.7 50.7 39.9 52.2C45.1 53.7 53.2 60.2 55 62.9C56.8 65.6 58.6 70 59.5 72.6" fill="#0BAFA7"/>
<path d="M31.6 20.6C31.6 20.6 32.9 19.7 36.6 18.2C40 16.9 41.5 17.4 45.4 17.4C49.3 17.5 56.5 21.8 56.5 21.8C56.5 21.8 63.3 26.9 64.2 31.2L65.3 11.7C65.3 11.7 63.6 5.49996 55.5 1.79996C47.4 -1.90004 40.2 4.99996 40.2 4.99996L31.6 20.6Z" fill="#5CE1E6"/>
<path d="M30.9 111.6C47.9656 111.6 61.8 97.7655 61.8 80.6999C61.8 63.6343 47.9656 49.7999 30.9 49.7999C13.8344 49.7999 0 63.6343 0 80.6999C0 97.7655 13.8344 111.6 30.9 111.6Z" fill="#C3FCF6"/>
<path d="M29.9 107.9C44.3699 107.9 56.1 96.1699 56.1 81.7C56.1 67.2301 44.3699 55.5 29.9 55.5C15.4302 55.5 3.70001 67.2301 3.70001 81.7C3.70001 96.1699 15.4302 107.9 29.9 107.9Z" fill="#005950"/>
<path d="M27.2 62.2C35.4 63 44.1 67.0999 46.3 73.5999C47.5 76.9999 47.1 80.2 46.7 82.3" stroke="white" stroke-width="4"/>
<path d="M95 75.7L91.7 30.5C91.7 30.5 92.3 24 104.2 18.6C116.1 13.2 124.3 20 124.3 20C124.3 20 129.1 23.7 129.6 24.8C130.1 25.8 147 58.7 147 58.7C147 58.7 140.2 51.6 131.6 50.6C123 49.6 121.1 50 116 51.4C110.9 52.8 102.7 59.5 100.9 62.2C99.1 64.9 97.3 69.3 96.4 71.9" fill="#0BAFA7"/>
<path d="M124.3 19.9C124.3 19.9 123 19 119.3 17.5C115.9 16.2 114.4 16.7 110.5 16.7C106.6 16.8 99.4 21.1 99.4 21.1C99.4 21.1 92.6 26.2 91.7 30.5L90.6 11C90.6 11 92.3 4.80001 100.4 1.10001C108.5 -2.59999 115.6 4.30001 115.6 4.30001L124.3 19.9Z" fill="#5CE1E6"/>
<path d="M125 110.9C142.066 110.9 155.9 97.0656 155.9 80C155.9 62.9344 142.066 49.1 125 49.1C107.934 49.1 94.1 62.9344 94.1 80C94.1 97.0656 107.934 110.9 125 110.9Z" fill="#C3FCF6"/>
<path d="M126 107.1C140.47 107.1 152.2 95.3698 152.2 80.9C152.2 66.4301 140.47 54.7 126 54.7C111.53 54.7 99.8 66.4301 99.8 80.9C99.8 95.3698 111.53 107.1 126 107.1Z" fill="#005950"/>
<path d="M125.4 61.4C133.6 62.2 142.3 66.3 144.5 72.8C145.7 76.2 145.3 79.4 144.9 81.5" stroke="white" stroke-width="4"/>
<path d="M78.1 80.1C82.8496 80.1 86.7 76.2497 86.7 71.5C86.7 66.7504 82.8496 62.9 78.1 62.9C73.3503 62.9 69.5 66.7504 69.5 71.5C69.5 76.2497 73.3503 80.1 78.1 80.1Z" fill="#5CE1E6"/>
<path d="M62.4 55.4L77.7 47.7L94.1 54.7L94.5 69L78.5 62.9L61.4 69L62.4 55.4Z" fill="#0BAFA7"/>
</g>
<defs>
<clipPath id="clip0_188_905">
<rect width="155.9" height="111.6" fill="white"/>
</clipPath>
</defs>
</svg>
