<svg width="150" height="150" viewBox="0 0 150 150" fill="none" xmlns="http://www.w3.org/2000/svg">
<path d="M74.8281 0C116.155 0 149.657 33.5017 149.657 74.8281C149.657 116.155 116.155 149.657 74.8281 149.657C33.5017 149.657 0 116.155 0 74.8281C0.000173177 33.5018 33.5018 0.000173198 74.8281 0ZM75 7C37.4446 7 7 37.4446 7 75C7 112.555 37.4446 143 75 143C112.555 143 143 112.555 143 75C143 37.4446 112.555 7 75 7Z" fill="url(#paint0_linear_161_27)"/>
<path d="M76.0604 109V42.0396H47.0761C41.0815 42.0396 35.916 43.028 31.5795 45.0049C27.243 46.9181 23.895 49.6922 21.5355 53.3272C19.1759 56.9622 17.9961 61.2987 17.9961 66.3366C17.9961 71.3108 19.1759 75.6154 21.5355 79.2504C23.895 82.8217 27.243 85.5638 31.5795 87.477C35.916 89.3902 41.0815 90.3467 47.0761 90.3467H67.4512L60.5638 83.555V109H76.0604ZM33.4927 109L50.2328 84.7029H33.684L16.7526 109H33.4927ZM60.5638 85.2769L67.4512 78.0069H47.937C43.1541 78.0069 39.5829 76.9865 37.2233 74.9458C34.8638 72.8414 33.684 69.9716 33.684 66.3366C33.684 62.6379 34.8638 59.7681 37.2233 57.7274C39.5829 55.6867 43.1541 54.6664 47.937 54.6664H67.4512L60.5638 47.3007V85.2769Z" fill="url(#paint1_linear_161_27)"/>
<path d="M105.486 109.13C100.211 109.13 95.1549 108.44 90.3191 107.058C85.4832 105.613 81.5895 103.761 78.6377 101.5L83.819 90.007C86.6451 92.0167 89.9736 93.6809 93.8046 94.9998C97.6984 96.2559 101.624 96.8839 105.58 96.8839C108.595 96.8839 111.013 96.6013 112.834 96.0361C114.718 95.408 116.1 94.5602 116.979 93.4925C117.858 92.4249 118.298 91.2002 118.298 89.8186C118.298 88.0601 117.607 86.6784 116.225 85.6736C114.844 84.6059 113.022 83.7581 110.761 83.1301C108.5 82.4392 105.988 81.8112 103.225 81.246C100.525 80.618 97.7926 79.8643 95.0293 78.9851C92.3287 78.1058 89.848 76.9754 87.5871 75.5937C85.3262 74.2121 83.4735 72.3908 82.0291 70.1299C80.6474 67.869 79.9566 64.98 79.9566 61.4631C79.9566 57.6949 80.9614 54.2722 82.9711 51.1948C85.0436 48.0547 88.121 45.574 92.2031 43.7527C96.3481 41.8686 101.529 40.9265 107.747 40.9265C111.892 40.9265 115.974 41.429 119.993 42.4338C124.013 43.3759 127.561 44.8203 130.638 46.7672L125.928 58.3543C122.851 56.5959 119.774 55.3084 116.696 54.492C113.619 53.6127 110.604 53.1731 107.653 53.1731C104.701 53.1731 102.283 53.5185 100.399 54.2093C98.5148 54.9002 97.1646 55.8108 96.3481 56.9413C95.5317 58.0089 95.1235 59.265 95.1235 60.7094C95.1235 62.4051 95.8143 63.7868 97.196 64.8544C98.5776 65.8593 100.399 66.6757 102.66 67.3037C104.921 67.9318 107.401 68.5598 110.102 69.1878C112.865 69.8159 115.597 70.5381 118.298 71.3545C121.061 72.171 123.573 73.27 125.834 74.6517C128.095 76.0333 129.916 77.8546 131.298 80.1155C132.742 82.3764 133.465 85.234 133.465 88.6881C133.465 92.3935 132.428 95.7848 130.356 98.8622C128.283 101.94 125.175 104.42 121.03 106.304C116.947 108.188 111.766 109.13 105.486 109.13Z" fill="url(#paint2_linear_161_27)"/>
<defs>
<linearGradient id="paint0_linear_161_27" x1="0" y1="74.8286" x2="149.657" y2="74.8286" gradientUnits="userSpaceOnUse">
<stop offset="0.322115" stop-color="#8C52FF"/>
<stop offset="0.754808" stop-color="#5CE1E6"/>
</linearGradient>
<linearGradient id="paint1_linear_161_27" x1="84" y1="74.5" x2="13" y2="74.5" gradientUnits="userSpaceOnUse">
<stop offset="0.322115" stop-color="#8C52FF"/>
<stop offset="0.754808" stop-color="#5CE1E6"/>
</linearGradient>
<linearGradient id="paint2_linear_161_27" x1="76" y1="74.5" x2="137" y2="74.5" gradientUnits="userSpaceOnUse">
<stop offset="0.322115" stop-color="#8C52FF"/>
<stop offset="0.754808" stop-color="#5CE1E6"/>
</linearGradient>
</defs>
</svg>
