<svg width="233" height="36" viewBox="0 0 233 36" fill="none" xmlns="http://www.w3.org/2000/svg">
<g filter="url(#filter0_d_156_22)">
<path d="M18.9259 26.8667V8.3528H10.4624C8.76969 8.3528 7.31503 8.6261 6.0984 9.1727C4.86414 9.7193 3.912 10.5127 3.24198 11.5531C2.57195 12.5757 2.23694 13.7923 2.23694 15.2029C2.23694 16.5959 2.57195 17.8037 3.24198 18.8264C3.912 19.8314 4.86414 20.6072 6.0984 21.1538C7.31503 21.6828 8.76969 21.9473 10.4624 21.9473H16.0165L13.6891 19.7521V26.8667H18.9259ZM7.47372 26.8667L12.0757 20.1223H6.49513L1.86666 26.8667H7.47372ZM13.6891 20.3075L16.0165 17.9007H10.7798C9.68656 17.9007 8.87548 17.6626 8.34651 17.1866C7.79991 16.7105 7.52661 16.0493 7.52661 15.2029C7.52661 14.3389 7.79991 13.6689 8.34651 13.1929C8.87548 12.7168 9.68656 12.4787 10.7798 12.4787H16.0165L13.6891 10.0719V20.3075Z" fill="#6E27FA"/>
</g>
<g filter="url(#filter1_d_156_22)">
<path d="M29.9019 27.238C28.2092 27.238 26.7281 26.9207 25.4586 26.2859C24.2067 25.6335 23.2281 24.7519 22.5228 23.6411C21.8352 22.5126 21.4914 21.2343 21.4914 19.806C21.4914 18.3778 21.8264 17.1083 22.4964 15.9975C23.1841 14.869 24.1274 13.9962 25.3264 13.3791C26.5254 12.7443 27.8742 12.4269 29.373 12.4269C30.7836 12.4269 32.0707 12.7179 33.2344 13.2997C34.3982 13.864 35.3239 14.7015 36.0115 15.8123C36.6992 16.9232 37.043 18.272 37.043 19.8589C37.043 20.0353 37.0342 20.238 37.0166 20.4673C36.9989 20.6965 36.9813 20.9081 36.9637 21.102H25.6173V18.4572H34.2924L32.3881 19.1977C32.4057 18.5453 32.2823 17.9811 32.0178 17.505C31.771 17.029 31.4183 16.6587 30.9599 16.3942C30.5191 16.1297 29.9989 15.9975 29.3994 15.9975C28.7999 15.9975 28.271 16.1297 27.8125 16.3942C27.3717 16.6587 27.0279 17.0378 26.781 17.5315C26.5342 18.0076 26.4108 18.5718 26.4108 19.2242V19.9912C26.4108 20.6965 26.5518 21.3048 26.8339 21.8161C27.1337 22.3275 27.5569 22.7242 28.1035 23.0063C28.6501 23.2708 29.3024 23.403 30.0606 23.403C30.7659 23.403 31.3654 23.306 31.8591 23.1121C32.3705 22.9005 32.873 22.5831 33.3667 22.1599L36.0115 24.9106C35.3239 25.6688 34.4775 26.2506 33.4725 26.6562C32.4674 27.0441 31.2773 27.238 29.9019 27.238ZM43.0953 27L37.1974 12.665H42.3548L47.0626 24.6461H44.4707L49.4165 12.665H54.2037L48.2792 27H43.0953ZM62.6266 27.238C60.934 27.238 59.4528 26.9207 58.1833 26.2859C56.9314 25.6335 55.9528 24.7519 55.2475 23.6411C54.5599 22.5126 54.2161 21.2343 54.2161 19.806C54.2161 18.3778 54.5511 17.1083 55.2211 15.9975C55.9088 14.869 56.8521 13.9962 58.0511 13.3791C59.2501 12.7443 60.5989 12.4269 62.0977 12.4269C63.5083 12.4269 64.7954 12.7179 65.9591 13.2997C67.1229 13.864 68.0486 14.7015 68.7362 15.8123C69.4239 16.9232 69.7677 18.272 69.7677 19.8589C69.7677 20.0353 69.7589 20.238 69.7413 20.4673C69.7236 20.6965 69.706 20.9081 69.6884 21.102H58.342V18.4572H67.0171L65.1128 19.1977C65.1304 18.5453 65.007 17.9811 64.7425 17.505C64.4957 17.029 64.143 16.6587 63.6846 16.3942C63.2438 16.1297 62.7236 15.9975 62.1241 15.9975C61.5246 15.9975 60.9957 16.1297 60.5372 16.3942C60.0964 16.6587 59.7526 17.0378 59.5057 17.5315C59.2589 18.0076 59.1355 18.5718 59.1355 19.2242V19.9912C59.1355 20.6965 59.2765 21.3048 59.5586 21.8161C59.8584 22.3275 60.2816 22.7242 60.8282 23.0063C61.3748 23.2708 62.0272 23.403 62.7853 23.403C63.4906 23.403 64.0901 23.306 64.5838 23.1121C65.0952 22.9005 65.5977 22.5831 66.0914 22.1599L68.7362 24.9106C68.0486 25.6688 67.2022 26.2506 66.1972 26.6562C65.1921 27.0441 64.002 27.238 62.6266 27.238ZM72.0846 27V12.665H76.8718V16.8438L76.1577 15.6536C76.5809 14.5781 77.2685 13.7758 78.2207 13.2468C79.1728 12.7002 80.3277 12.4269 81.6854 12.4269V16.9496C81.4562 16.9144 81.2534 16.8967 81.0771 16.8967C80.9184 16.8791 80.7421 16.8703 80.5481 16.8703C79.5254 16.8703 78.6967 17.1524 78.062 17.7166C77.4272 18.2632 77.1098 19.1625 77.1098 20.4144V27H72.0846ZM89.0211 27.238C87.8045 27.238 86.6143 27.097 85.4506 26.8149C84.3045 26.5327 83.3788 26.1801 82.6735 25.7569L84.181 22.3186C84.8511 22.7242 85.6357 23.0504 86.535 23.2972C87.4342 23.5264 88.3158 23.6411 89.1798 23.6411C90.0261 23.6411 90.608 23.5529 90.9254 23.3766C91.2604 23.2002 91.4279 22.9622 91.4279 22.6625C91.4279 22.3803 91.2692 22.1776 90.9518 22.0542C90.6521 21.9131 90.2465 21.8073 89.7352 21.7368C89.2415 21.6662 88.6949 21.5869 88.0954 21.4987C87.4959 21.4106 86.8876 21.296 86.2705 21.1549C85.671 20.9962 85.1156 20.767 84.6042 20.4673C84.1105 20.1499 83.7138 19.7267 83.414 19.1977C83.1143 18.6688 82.9644 17.9987 82.9644 17.1877C82.9644 16.2708 83.2289 15.4597 83.7579 14.7544C84.3045 14.0315 85.0979 13.4672 86.1382 13.0617C87.1785 12.6385 88.4481 12.4269 89.9468 12.4269C90.9518 12.4269 91.9657 12.5327 92.9884 12.7443C94.0287 12.9383 94.9015 13.238 95.6067 13.6436L94.0992 17.0554C93.3939 16.6499 92.6886 16.3766 91.9833 16.2355C91.278 16.0768 90.608 15.9975 89.9732 15.9975C89.1269 15.9975 88.5274 16.0945 88.1748 16.2884C87.8397 16.4824 87.6722 16.7204 87.6722 17.0025C87.6722 17.2846 87.8221 17.505 88.1219 17.6637C88.4216 17.8048 88.8183 17.9194 89.312 18.0076C89.8234 18.0781 90.3788 18.1574 90.9783 18.2456C91.5778 18.3161 92.1773 18.4307 92.7768 18.5894C93.3939 18.7481 93.9493 18.9861 94.443 19.3035C94.9544 19.6033 95.3599 20.0176 95.6596 20.5466C95.9594 21.0579 96.1093 21.7191 96.1093 22.5302C96.1093 23.4118 95.836 24.2053 95.2894 24.9106C94.7604 25.6159 93.9669 26.1801 92.909 26.6033C91.8687 27.0264 90.5727 27.238 89.0211 27.238ZM105.469 27.238C103.899 27.238 102.506 26.9207 101.29 26.2859C100.073 25.6511 99.1123 24.7783 98.407 23.6675C97.7193 22.539 97.3755 21.2519 97.3755 19.806C97.3755 18.3602 97.7193 17.0819 98.407 15.971C99.1123 14.8602 100.073 13.9962 101.29 13.3791C102.506 12.7443 103.899 12.4269 105.469 12.4269C107.038 12.4269 108.431 12.7443 109.648 13.3791C110.882 13.9962 111.843 14.8602 112.53 15.971C113.218 17.0819 113.562 18.3602 113.562 19.806C113.562 21.2519 113.218 22.539 112.53 23.6675C111.843 24.7783 110.882 25.6511 109.648 26.2859C108.431 26.9207 107.038 27.238 105.469 27.238ZM105.469 23.2443C106.051 23.2443 106.562 23.1121 107.003 22.8476C107.461 22.5831 107.823 22.1952 108.087 21.6839C108.352 21.1549 108.484 20.529 108.484 19.806C108.484 19.0831 108.352 18.4748 108.087 17.9811C107.823 17.4698 107.461 17.0819 107.003 16.8174C106.562 16.5529 106.051 16.4206 105.469 16.4206C104.904 16.4206 104.393 16.5529 103.935 16.8174C103.494 17.0819 103.132 17.4698 102.85 17.9811C102.586 18.4748 102.454 19.0831 102.454 19.806C102.454 20.529 102.586 21.1549 102.85 21.6839C103.132 22.1952 103.494 22.5831 103.935 22.8476C104.393 23.1121 104.904 23.2443 105.469 23.2443ZM128.394 27.3703C126.877 27.3703 125.414 27.1851 124.003 26.8149C122.61 26.427 121.473 25.9332 120.592 25.3338L122.311 21.4723C123.139 22.0013 124.092 22.4421 125.167 22.7947C126.26 23.1297 127.345 23.2972 128.42 23.2972C129.143 23.2972 129.725 23.2355 130.166 23.1121C130.607 22.971 130.924 22.7947 131.118 22.5831C131.33 22.3539 131.435 22.0894 131.435 21.7897C131.435 21.3665 131.241 21.0315 130.854 20.7846C130.466 20.5378 129.963 20.335 129.346 20.1763C128.729 20.0176 128.041 19.8589 127.283 19.7002C126.542 19.5416 125.793 19.3388 125.035 19.0919C124.294 18.8451 123.616 18.5277 122.998 18.1398C122.381 17.7343 121.879 17.2141 121.491 16.5793C121.103 15.9269 120.909 15.107 120.909 14.1196C120.909 13.0088 121.209 12.0038 121.808 11.1045C122.425 10.2053 123.342 9.48236 124.559 8.93576C125.775 8.38916 127.292 8.11586 129.108 8.11586C130.325 8.11586 131.515 8.25691 132.678 8.53903C133.86 8.80351 134.909 9.20024 135.826 9.72921L134.212 13.6171C133.331 13.141 132.458 12.7884 131.594 12.5592C130.73 12.3123 129.893 12.1889 129.082 12.1889C128.359 12.1889 127.777 12.2683 127.336 12.4269C126.895 12.568 126.578 12.762 126.384 13.0088C126.19 13.2557 126.093 13.5378 126.093 13.8552C126.093 14.2607 126.278 14.5869 126.648 14.8337C127.036 15.063 127.539 15.2569 128.156 15.4156C128.791 15.5567 129.478 15.7065 130.219 15.8652C130.977 16.0239 131.726 16.2267 132.467 16.4735C133.225 16.7028 133.913 17.0201 134.53 17.4257C135.147 17.8136 135.641 18.3337 136.011 18.9861C136.399 19.6209 136.593 20.4232 136.593 21.3929C136.593 22.4685 136.284 23.4647 135.667 24.3816C135.068 25.2809 134.16 26.0038 132.943 26.5504C131.744 27.097 130.228 27.3703 128.394 27.3703ZM145.968 27.238C144.398 27.238 143.006 26.9207 141.789 26.2859C140.572 25.6511 139.611 24.7783 138.906 23.6675C138.218 22.539 137.875 21.2519 137.875 19.806C137.875 18.3602 138.218 17.0819 138.906 15.971C139.611 14.8602 140.572 13.9962 141.789 13.3791C143.006 12.7443 144.398 12.4269 145.968 12.4269C147.537 12.4269 148.93 12.7443 150.147 13.3791C151.381 13.9962 152.342 14.8602 153.029 15.971C153.717 17.0819 154.061 18.3602 154.061 19.806C154.061 21.2519 153.717 22.539 153.029 23.6675C152.342 24.7783 151.381 25.6511 150.147 26.2859C148.93 26.9207 147.537 27.238 145.968 27.238ZM145.968 23.2443C146.55 23.2443 147.061 23.1121 147.502 22.8476C147.96 22.5831 148.322 22.1952 148.586 21.6839C148.851 21.1549 148.983 20.529 148.983 19.806C148.983 19.0831 148.851 18.4748 148.586 17.9811C148.322 17.4698 147.96 17.0819 147.502 16.8174C147.061 16.5529 146.55 16.4206 145.968 16.4206C145.404 16.4206 144.892 16.5529 144.434 16.8174C143.993 17.0819 143.631 17.4698 143.349 17.9811C143.085 18.4748 142.953 19.0831 142.953 19.806C142.953 20.529 143.085 21.1549 143.349 21.6839C143.631 22.1952 143.993 22.5831 144.434 22.8476C144.892 23.1121 145.404 23.2443 145.968 23.2443ZM163.715 27.238C162.128 27.238 160.709 26.9207 159.457 26.2859C158.223 25.6511 157.253 24.7783 156.548 23.6675C155.842 22.539 155.49 21.2519 155.49 19.806C155.49 18.3602 155.842 17.0819 156.548 15.971C157.253 14.8602 158.223 13.9962 159.457 13.3791C160.709 12.7443 162.128 12.4269 163.715 12.4269C165.337 12.4269 166.739 12.7708 167.92 13.4584C169.102 14.1461 169.939 15.1159 170.433 16.3678L166.545 18.3514C166.21 17.6814 165.796 17.1965 165.302 16.8967C164.808 16.5793 164.27 16.4206 163.689 16.4206C163.107 16.4206 162.578 16.5529 162.102 16.8174C161.626 17.0819 161.247 17.4698 160.964 17.9811C160.7 18.4748 160.568 19.0831 160.568 19.806C160.568 20.5466 160.7 21.1725 160.964 21.6839C161.247 22.1952 161.626 22.5831 162.102 22.8476C162.578 23.1121 163.107 23.2443 163.689 23.2443C164.27 23.2443 164.808 23.0945 165.302 22.7947C165.796 22.4773 166.21 21.9836 166.545 21.3136L170.433 23.2972C169.939 24.5491 169.102 25.5189 167.92 26.2065C166.739 26.8942 165.337 27.238 163.715 27.238ZM172.273 27V12.665H177.299V27H172.273ZM174.786 11.0781C173.869 11.0781 173.129 10.8224 172.564 10.3111C172 9.79974 171.718 9.16498 171.718 8.40679C171.718 7.6486 172 7.01384 172.564 6.5025C173.129 5.99117 173.869 5.7355 174.786 5.7355C175.703 5.7355 176.443 5.98235 177.008 6.47606C177.572 6.95213 177.854 7.56926 177.854 8.32744C177.854 9.12089 177.572 9.7821 177.008 10.3111C176.461 10.8224 175.72 11.0781 174.786 11.0781ZM189.319 27V24.3287L188.975 23.6675V18.7481C188.975 17.9547 188.728 17.3463 188.234 16.9232C187.758 16.4824 186.991 16.262 185.933 16.262C185.246 16.262 184.549 16.3766 183.844 16.6058C183.139 16.8174 182.539 17.1171 182.045 17.505L180.353 14.0932C181.164 13.5642 182.134 13.1587 183.262 12.8766C184.408 12.5768 185.545 12.4269 186.674 12.4269C189.001 12.4269 190.8 12.9647 192.069 14.0403C193.357 15.0982 194 16.7645 194 19.039V27H189.319ZM185.087 27.238C183.941 27.238 182.971 27.0441 182.178 26.6562C181.384 26.2683 180.776 25.7393 180.353 25.0693C179.947 24.3992 179.744 23.6499 179.744 22.8212C179.744 21.9395 179.965 21.1814 180.406 20.5466C180.864 19.8942 181.561 19.4005 182.495 19.0655C183.43 18.7128 184.637 18.5365 186.118 18.5365H189.504V21.1549H186.806C185.995 21.1549 185.422 21.2871 185.087 21.5516C184.77 21.8161 184.611 22.1688 184.611 22.6096C184.611 23.0504 184.778 23.403 185.113 23.6675C185.448 23.932 185.907 24.0642 186.489 24.0642C187.035 24.0642 187.529 23.932 187.97 23.6675C188.428 23.3854 188.763 22.9622 188.975 22.398L189.663 24.2494C189.398 25.2368 188.878 25.9861 188.102 26.4975C187.344 26.9912 186.339 27.238 185.087 27.238ZM197.172 27V7.3753H202.197V27H197.172Z" fill="url(#paint0_linear_156_22)"/>
</g>
<defs>
<filter id="filter0_d_156_22" x="-1.32322e-05" y="8.3528" width="20.7926" height="22.2472" filterUnits="userSpaceOnUse" color-interpolation-filters="sRGB">
<feFlood flood-opacity="0" result="BackgroundImageFix"/>
<feColorMatrix in="SourceAlpha" type="matrix" values="0 0 0 0 0 0 0 0 0 0 0 0 0 0 0 0 0 0 127 0" result="hardAlpha"/>
<feOffset dy="1.86667"/>
<feGaussianBlur stdDeviation="0.933333"/>
<feComposite in2="hardAlpha" operator="out"/>
<feColorMatrix type="matrix" values="0 0 0 0 0 0 0 0 0 0 0 0 0 0 0 0 0 0 0.25 0"/>
<feBlend mode="normal" in2="BackgroundImageFix" result="effect1_dropShadow_156_22"/>
<feBlend mode="normal" in="SourceGraphic" in2="effect1_dropShadow_156_22" result="shape"/>
</filter>
<filter id="filter1_d_156_22" x="19.6247" y="5.7355" width="184.439" height="25.3681" filterUnits="userSpaceOnUse" color-interpolation-filters="sRGB">
<feFlood flood-opacity="0" result="BackgroundImageFix"/>
<feColorMatrix in="SourceAlpha" type="matrix" values="0 0 0 0 0 0 0 0 0 0 0 0 0 0 0 0 0 0 127 0" result="hardAlpha"/>
<feOffset dy="1.86667"/>
<feGaussianBlur stdDeviation="0.933333"/>
<feComposite in2="hardAlpha" operator="out"/>
<feColorMatrix type="matrix" values="0 0 0 0 0 0 0 0 0 0 0 0 0 0 0 0 0 0 0.25 0"/>
<feBlend mode="normal" in2="BackgroundImageFix" result="effect1_dropShadow_156_22"/>
<feBlend mode="normal" in="SourceGraphic" in2="effect1_dropShadow_156_22" result="shape"/>
</filter>
<linearGradient id="paint0_linear_156_22" x1="20.7773" y1="18" x2="232.177" y2="18" gradientUnits="userSpaceOnUse">
<stop offset="0.115385" stop-color="#6E27FA"/>
<stop offset="0.663462" stop-color="#24D1D8"/>
</linearGradient>
</defs>
</svg>
